<svg width="48" height="48" viewBox="0 0 48 48" fill="none" xmlns="http://www.w3.org/2000/svg">
<rect width="48" height="48" rx="5" fill="#1E1E1E"/>
<rect x="9.5" y="7.5" width="29" height="34" rx="4.5" stroke="white"/>
<path d="M19.7422 18.7969C18.6549 18.7969 17.7174 19.0605 16.9297 19.5879C16.1484 20.1152 15.5658 20.8249 15.1816 21.7168C14.7975 22.6087 14.6055 23.6341 14.6055 24.793C14.6055 25.6589 14.7096 26.4499 14.918 27.166C15.1263 27.8757 15.4388 28.5007 15.8555 29.041C16.2721 29.5749 16.8125 29.9915 17.4766 30.291C18.1471 30.584 18.9154 30.7305 19.7812 30.7305C20.8945 30.7305 22.0469 30.4408 23.2383 29.8613L23.5215 31.2969C22.5514 31.9089 21.2396 32.2148 19.5859 32.2148C18.4987 32.2148 17.5221 32.0358 16.6562 31.6777C15.7969 31.3132 15.084 30.8021 14.5176 30.1445C13.9577 29.4805 13.5312 28.6927 13.2383 27.7812C12.9453 26.8633 12.7988 25.8444 12.7988 24.7246C12.7988 23.6439 12.9583 22.6478 13.2773 21.7363C13.5964 20.8249 14.0456 20.0436 14.625 19.3926C15.2109 18.735 15.9401 18.224 16.8125 17.8594C17.6849 17.4948 18.6549 17.3125 19.7227 17.3125C21.3438 17.3125 22.7109 17.6706 23.8242 18.3867L23.1602 19.7637C22.0924 19.1191 20.9531 18.7969 19.7422 18.7969ZM25.7285 29.6172C27.2324 30.3594 28.8438 30.7305 30.5625 30.7305C32.6784 30.7305 33.7363 29.7669 33.7363 27.8398C33.7363 27.2148 33.5671 26.7103 33.2285 26.3262C32.8965 25.9355 32.2878 25.6296 31.4023 25.4082L28.5312 24.6855C26.3372 24.1322 25.2402 22.9603 25.2402 21.1699C25.2402 19.7962 25.7122 18.7773 26.6562 18.1133C27.6003 17.4427 28.9056 17.1074 30.5723 17.1074C31.4447 17.1074 32.2617 17.2018 33.0234 17.3906C33.7852 17.5794 34.4232 17.8333 34.9375 18.1523L34.4492 19.5293C34.013 19.2884 33.4336 19.0736 32.7109 18.8848C31.9948 18.696 31.2689 18.6016 30.5332 18.6016C28.1764 18.6016 26.998 19.4186 26.998 21.0527C26.998 21.6061 27.1771 22.0521 27.5352 22.3906C27.8997 22.7227 28.4434 22.9766 29.166 23.1523L31.9102 23.8164C33.082 24.0964 33.9707 24.5456 34.5762 25.1641C35.1816 25.776 35.4844 26.6484 35.4844 27.7812C35.4844 29.2526 35.0319 30.3626 34.127 31.1113C33.2285 31.8535 32.0046 32.2246 30.4551 32.2246C29.2962 32.2246 28.2643 32.1074 27.3594 31.873C26.4609 31.6322 25.748 31.349 25.2207 31.0234L25.7285 29.6172Z" fill="white"/>
</svg>
