<svg width="30" height="35" viewBox="0 0 30 35" fill="none" xmlns="http://www.w3.org/2000/svg">
<rect x="0.5" y="0.5" width="29" height="34" rx="4.5" fill="#1E1E1E" stroke="white"/>
<path d="M10.7422 11.7969C9.65495 11.7969 8.71745 12.0605 7.92969 12.5879C7.14844 13.1152 6.56576 13.8249 6.18164 14.7168C5.79753 15.6087 5.60547 16.6341 5.60547 17.793C5.60547 18.6589 5.70964 19.4499 5.91797 20.166C6.1263 20.8757 6.4388 21.5007 6.85547 22.041C7.27214 22.5749 7.8125 22.9915 8.47656 23.291C9.14714 23.584 9.91536 23.7305 10.7812 23.7305C11.8945 23.7305 13.0469 23.4408 14.2383 22.8613L14.5215 24.2969C13.5514 24.9089 12.2396 25.2148 10.5859 25.2148C9.4987 25.2148 8.52214 25.0358 7.65625 24.6777C6.79688 24.3132 6.08398 23.8021 5.51758 23.1445C4.95768 22.4805 4.53125 21.6927 4.23828 20.7812C3.94531 19.8633 3.79883 18.8444 3.79883 17.7246C3.79883 16.6439 3.95833 15.6478 4.27734 14.7363C4.59635 13.8249 5.04557 13.0436 5.625 12.3926C6.21094 11.735 6.9401 11.224 7.8125 10.8594C8.6849 10.4948 9.65495 10.3125 10.7227 10.3125C12.3438 10.3125 13.7109 10.6706 14.8242 11.3867L14.1602 12.7637C13.0924 12.1191 11.9531 11.7969 10.7422 11.7969ZM16.7285 22.6172C18.2324 23.3594 19.8438 23.7305 21.5625 23.7305C23.6784 23.7305 24.7363 22.7669 24.7363 20.8398C24.7363 20.2148 24.5671 19.7103 24.2285 19.3262C23.8965 18.9355 23.2878 18.6296 22.4023 18.4082L19.5312 17.6855C17.3372 17.1322 16.2402 15.9603 16.2402 14.1699C16.2402 12.7962 16.7122 11.7773 17.6562 11.1133C18.6003 10.4427 19.9056 10.1074 21.5723 10.1074C22.4447 10.1074 23.2617 10.2018 24.0234 10.3906C24.7852 10.5794 25.4232 10.8333 25.9375 11.1523L25.4492 12.5293C25.013 12.2884 24.4336 12.0736 23.7109 11.8848C22.9948 11.696 22.2689 11.6016 21.5332 11.6016C19.1764 11.6016 17.998 12.4186 17.998 14.0527C17.998 14.6061 18.1771 15.0521 18.5352 15.3906C18.8997 15.7227 19.4434 15.9766 20.166 16.1523L22.9102 16.8164C24.082 17.0964 24.9707 17.5456 25.5762 18.1641C26.1816 18.776 26.4844 19.6484 26.4844 20.7812C26.4844 22.2526 26.0319 23.3626 25.127 24.1113C24.2285 24.8535 23.0046 25.2246 21.4551 25.2246C20.2962 25.2246 19.2643 25.1074 18.3594 24.873C17.4609 24.6322 16.748 24.349 16.2207 24.0234L16.7285 22.6172Z" fill="#38BDF8"/>
</svg>
