<svg width="42" height="42" viewBox="0 0 42 42" fill="none" xmlns="http://www.w3.org/2000/svg">
<rect width="42" height="42" rx="5" fill="#1E1E1E"/>
<rect x="6.5" y="4.5" width="29" height="33.0278" rx="4.5" stroke="white"/>
<path d="M16.7422 15.8246C15.6549 15.8246 14.7174 16.0883 13.9297 16.6157C13.1484 17.143 12.5658 17.8526 12.1816 18.7446C11.7975 19.6365 11.6055 20.6619 11.6055 21.8207C11.6055 22.6866 11.7096 23.4776 11.918 24.1938C12.1263 24.9034 12.4388 25.5284 12.8555 26.0688C13.2721 26.6026 13.8125 27.0193 14.4766 27.3188C15.1471 27.6118 15.9154 27.7582 16.7812 27.7582C17.8945 27.7582 19.0469 27.4685 20.2383 26.8891L20.5215 28.3246C19.5514 28.9366 18.2396 29.2426 16.5859 29.2426C15.4987 29.2426 14.5221 29.0636 13.6562 28.7055C12.7969 28.3409 12.084 27.8299 11.5176 27.1723C10.9577 26.5082 10.5312 25.7205 10.2383 24.809C9.94531 23.8911 9.79883 22.8722 9.79883 21.7524C9.79883 20.6717 9.95833 19.6756 10.2773 18.7641C10.5964 17.8526 11.0456 17.0714 11.625 16.4203C12.2109 15.7628 12.9401 15.2517 13.8125 14.8871C14.6849 14.5226 15.6549 14.3403 16.7227 14.3403C18.3438 14.3403 19.7109 14.6983 20.8242 15.4145L20.1602 16.7914C19.0924 16.1469 17.9531 15.8246 16.7422 15.8246ZM22.7285 26.645C24.2324 27.3871 25.8438 27.7582 27.5625 27.7582C29.6784 27.7582 30.7363 26.7947 30.7363 24.8676C30.7363 24.2426 30.5671 23.7381 30.2285 23.3539C29.8965 22.9633 29.2878 22.6573 28.4023 22.436L25.5312 21.7133C23.3372 21.1599 22.2402 19.9881 22.2402 18.1977C22.2402 16.824 22.7122 15.8051 23.6562 15.1411C24.6003 14.4705 25.9056 14.1352 27.5723 14.1352C28.4447 14.1352 29.2617 14.2296 30.0234 14.4184C30.7852 14.6072 31.4232 14.8611 31.9375 15.1801L31.4492 16.5571C31.013 16.3162 30.4336 16.1013 29.7109 15.9125C28.9948 15.7237 28.2689 15.6293 27.5332 15.6293C25.1764 15.6293 23.998 16.4464 23.998 18.0805C23.998 18.6339 24.1771 19.0799 24.5352 19.4184C24.8997 19.7504 25.4434 20.0043 26.166 20.1801L28.9102 20.8442C30.082 21.1241 30.9707 21.5733 31.5762 22.1918C32.1816 22.8038 32.4844 23.6762 32.4844 24.809C32.4844 26.2804 32.0319 27.3904 31.127 28.1391C30.2285 28.8813 29.0046 29.2524 27.4551 29.2524C26.2962 29.2524 25.2643 29.1352 24.3594 28.9008C23.4609 28.6599 22.748 28.3767 22.2207 28.0512L22.7285 26.645Z" fill="white"/>
</svg>
