<svg width="83" height="35" viewBox="0 0 83 35" fill="none" xmlns="http://www.w3.org/2000/svg">
<rect x="0.5" y="0.5" width="29" height="34" rx="4.5" stroke="white"/>
<path d="M10.7422 11.7969C9.65495 11.7969 8.71745 12.0605 7.92969 12.5879C7.14844 13.1152 6.56576 13.8249 6.18164 14.7168C5.79753 15.6087 5.60547 16.6341 5.60547 17.793C5.60547 18.6589 5.70964 19.4499 5.91797 20.166C6.1263 20.8757 6.4388 21.5007 6.85547 22.041C7.27214 22.5749 7.8125 22.9915 8.47656 23.291C9.14714 23.584 9.91536 23.7305 10.7812 23.7305C11.8945 23.7305 13.0469 23.4408 14.2383 22.8613L14.5215 24.2969C13.5514 24.9089 12.2396 25.2148 10.5859 25.2148C9.4987 25.2148 8.52214 25.0358 7.65625 24.6777C6.79688 24.3132 6.08398 23.8021 5.51758 23.1445C4.95768 22.4805 4.53125 21.6927 4.23828 20.7812C3.94531 19.8633 3.79883 18.8444 3.79883 17.7246C3.79883 16.6439 3.95833 15.6478 4.27734 14.7363C4.59635 13.8249 5.04557 13.0436 5.625 12.3926C6.21094 11.735 6.9401 11.224 7.8125 10.8594C8.6849 10.4948 9.65495 10.3125 10.7227 10.3125C12.3438 10.3125 13.7109 10.6706 14.8242 11.3867L14.1602 12.7637C13.0924 12.1191 11.9531 11.7969 10.7422 11.7969ZM16.7285 22.6172C18.2324 23.3594 19.8438 23.7305 21.5625 23.7305C23.6784 23.7305 24.7363 22.7669 24.7363 20.8398C24.7363 20.2148 24.5671 19.7103 24.2285 19.3262C23.8965 18.9355 23.2878 18.6296 22.4023 18.4082L19.5312 17.6855C17.3372 17.1322 16.2402 15.9603 16.2402 14.1699C16.2402 12.7962 16.7122 11.7773 17.6562 11.1133C18.6003 10.4427 19.9056 10.1074 21.5723 10.1074C22.4447 10.1074 23.2617 10.2018 24.0234 10.3906C24.7852 10.5794 25.4232 10.8333 25.9375 11.1523L25.4492 12.5293C25.013 12.2884 24.4336 12.0736 23.7109 11.8848C22.9948 11.696 22.2689 11.6016 21.5332 11.6016C19.1764 11.6016 17.998 12.4186 17.998 14.0527C17.998 14.6061 18.1771 15.0521 18.5352 15.3906C18.8997 15.7227 19.4434 15.9766 20.166 16.1523L22.9102 16.8164C24.082 17.0964 24.9707 17.5456 25.5762 18.1641C26.1816 18.776 26.4844 19.6484 26.4844 20.7812C26.4844 22.2526 26.0319 23.3626 25.127 24.1113C24.2285 24.8535 23.0046 25.2246 21.4551 25.2246C20.2962 25.2246 19.2643 25.1074 18.3594 24.873C17.4609 24.6322 16.748 24.349 16.2207 24.0234L16.7285 22.6172Z" fill="white"/>
<path d="M39.2559 11.7969C38.1686 11.7969 37.2311 12.0605 36.4434 12.5879C35.6621 13.1152 35.0794 13.8249 34.6953 14.7168C34.3112 15.6087 34.1191 16.6341 34.1191 17.793C34.1191 18.6589 34.2233 19.4499 34.4316 20.166C34.64 20.8757 34.9525 21.5007 35.3691 22.041C35.7858 22.5749 36.3262 22.9915 36.9902 23.291C37.6608 23.584 38.429 23.7305 39.2949 23.7305C40.4082 23.7305 41.5605 23.4408 42.752 22.8613L43.0352 24.2969C42.0651 24.9089 40.7533 25.2148 39.0996 25.2148C38.0124 25.2148 37.0358 25.0358 36.1699 24.6777C35.3105 24.3132 34.5977 23.8021 34.0312 23.1445C33.4714 22.4805 33.0449 21.6927 32.752 20.7812C32.459 19.8633 32.3125 18.8444 32.3125 17.7246C32.3125 16.6439 32.472 15.6478 32.791 14.7363C33.11 13.8249 33.5592 13.0436 34.1387 12.3926C34.7246 11.735 35.4538 11.224 36.3262 10.8594C37.1986 10.4948 38.1686 10.3125 39.2363 10.3125C40.8574 10.3125 42.2246 10.6706 43.3379 11.3867L42.6738 12.7637C41.6061 12.1191 40.4668 11.7969 39.2559 11.7969ZM48.3086 23.9062C49.0833 23.9062 49.7637 23.6947 50.3496 23.2715C50.9421 22.8418 51.3229 22.2656 51.4922 21.543V19.7363C51.4596 19.7363 51.2611 19.7526 50.8965 19.7852C50.5384 19.8177 50.304 19.8372 50.1934 19.8438C48.7806 19.9674 47.7943 20.1986 47.2344 20.5371C46.681 20.8757 46.4043 21.4193 46.4043 22.168C46.4043 22.7409 46.5736 23.1738 46.9121 23.4668C47.2507 23.7598 47.7161 23.9062 48.3086 23.9062ZM51.8535 25C51.7559 24.5833 51.6615 24.1341 51.5703 23.6523C50.9779 24.2448 50.4212 24.6549 49.9004 24.8828C49.3796 25.1107 48.7676 25.2246 48.0645 25.2246C47.0618 25.2246 46.2546 24.9642 45.6426 24.4434C45.0371 23.916 44.7344 23.1608 44.7344 22.1777C44.7344 21.084 45.1478 20.2734 45.9746 19.7461C46.8079 19.2188 48.0059 18.89 49.5684 18.7598C49.7832 18.7402 50.1055 18.7142 50.5352 18.6816C50.9714 18.6426 51.2969 18.6133 51.5117 18.5938V17.6465C51.5117 16.8913 51.3359 16.3314 50.9844 15.9668C50.6328 15.6022 50.0794 15.4199 49.3242 15.4199C48.2695 15.4199 47.2051 15.6803 46.1309 16.2012C46.0983 16.123 46.0137 15.8984 45.877 15.5273C45.7402 15.1497 45.6686 14.9544 45.6621 14.9414C46.1374 14.6745 46.7005 14.4629 47.3516 14.3066C48.0091 14.1439 48.6764 14.0625 49.3535 14.0625C50.6882 14.0625 51.6484 14.3555 52.2344 14.9414C52.8268 15.5208 53.123 16.5104 53.123 17.9102V25H51.8535ZM60.7402 14.1895C61.0332 14.1895 61.3001 14.209 61.541 14.248L61.4824 15.752C61.1829 15.6999 60.9225 15.6738 60.7012 15.6738C59.7897 15.6738 59.0475 15.9928 58.4746 16.6309C57.9082 17.2624 57.625 18.0469 57.625 18.9844V25H55.9941C55.9876 18.4245 55.9844 14.8535 55.9844 14.2871H57.3418L57.498 16.2109C57.8691 15.6055 58.3411 15.1172 58.9141 14.7461C59.487 14.375 60.0957 14.1895 60.7402 14.1895ZM67.2051 23.8184C68.2793 23.8184 69.0768 23.4733 69.5977 22.7832C70.125 22.0931 70.3887 21.1068 70.3887 19.8242C70.3887 18.3789 70.1348 17.2917 69.627 16.5625C69.1257 15.8268 68.3118 15.459 67.1855 15.459C66.6842 15.459 66.2415 15.5664 65.8574 15.7812C65.4733 15.9961 65.1641 16.2956 64.9297 16.6797C64.6953 17.0638 64.5163 17.5065 64.3926 18.0078C64.2754 18.5026 64.2168 19.0462 64.2168 19.6387C64.2168 20.472 64.3177 21.1947 64.5195 21.8066C64.7279 22.4186 65.0599 22.9069 65.5156 23.2715C65.9714 23.6361 66.5345 23.8184 67.2051 23.8184ZM70.418 23.4473C70.0664 23.9876 69.5977 24.4173 69.0117 24.7363C68.4258 25.0553 67.7715 25.2148 67.0488 25.2148C65.6361 25.2148 64.5293 24.7135 63.7285 23.7109C62.9277 22.7018 62.5273 21.3314 62.5273 19.5996C62.5273 17.946 62.9342 16.6113 63.748 15.5957C64.5618 14.5736 65.6523 14.0625 67.0195 14.0625C67.7292 14.0625 68.3965 14.2188 69.0215 14.5312C69.653 14.8372 70.125 15.2507 70.4375 15.7715L70.4082 14.8438V10.127L72.0195 10.0293V25H70.6328L70.418 23.4473ZM78.0547 25.2246C77.3255 25.2246 76.6517 25.1465 76.0332 24.9902C75.4212 24.834 74.9232 24.6322 74.5391 24.3848L74.7441 23.0078C75.8314 23.5872 76.8991 23.877 77.9473 23.877C79.5358 23.877 80.3529 23.3171 80.3984 22.1973C80.3984 21.722 80.2292 21.3477 79.8906 21.0742C79.5521 20.8008 78.888 20.4948 77.8984 20.1562L77.0879 19.873C76.1504 19.5605 75.4798 19.1732 75.0762 18.7109C74.679 18.2487 74.4772 17.6725 74.4707 16.9824C74.4707 16.1426 74.806 15.446 75.4766 14.8926C76.1536 14.3392 77.0781 14.0625 78.25 14.0625C79.4609 14.0625 80.5645 14.2969 81.5605 14.7656L81.082 16.0156C80.0729 15.599 79.1289 15.3906 78.25 15.3906C77.5664 15.3906 77.0293 15.5273 76.6387 15.8008C76.2546 16.0677 76.0625 16.4453 76.0625 16.9336C76.0625 17.3503 76.2025 17.6693 76.4824 17.8906C76.7624 18.112 77.3223 18.3659 78.1621 18.6523C78.377 18.7305 78.6471 18.8216 78.9727 18.9258C80.0534 19.2773 80.8184 19.694 81.2676 20.1758C81.7168 20.651 81.9414 21.2956 81.9414 22.1094C81.9284 23.099 81.5736 23.8672 80.877 24.4141C80.1803 24.9544 79.2396 25.2246 78.0547 25.2246Z" fill="white"/>
</svg>
