<svg width="30" height="35" viewBox="0 0 30 35" fill="none" xmlns="http://www.w3.org/2000/svg">
<rect x="0.5" y="1.47223" width="29" height="33.0278" rx="4.5" stroke="white"/>
<path d="M10.7422 12.7969C9.65495 12.7969 8.71745 13.0605 7.92969 13.5879C7.14844 14.1152 6.56576 14.8249 6.18164 15.7168C5.79753 16.6087 5.60547 17.6341 5.60547 18.793C5.60547 19.6589 5.70964 20.4499 5.91797 21.166C6.1263 21.8757 6.4388 22.5007 6.85547 23.041C7.27214 23.5749 7.8125 23.9915 8.47656 24.291C9.14714 24.584 9.91536 24.7305 10.7812 24.7305C11.8945 24.7305 13.0469 24.4408 14.2383 23.8613L14.5215 25.2969C13.5514 25.9089 12.2396 26.2148 10.5859 26.2148C9.4987 26.2148 8.52214 26.0358 7.65625 25.6777C6.79688 25.3132 6.08398 24.8021 5.51758 24.1445C4.95768 23.4805 4.53125 22.6927 4.23828 21.7812C3.94531 20.8633 3.79883 19.8444 3.79883 18.7246C3.79883 17.6439 3.95833 16.6478 4.27734 15.7363C4.59635 14.8249 5.04557 14.0436 5.625 13.3926C6.21094 12.735 6.9401 12.224 7.8125 11.8594C8.6849 11.4948 9.65495 11.3125 10.7227 11.3125C12.3438 11.3125 13.7109 11.6706 14.8242 12.3867L14.1602 13.7637C13.0924 13.1191 11.9531 12.7969 10.7422 12.7969ZM16.7285 23.6172C18.2324 24.3594 19.8438 24.7305 21.5625 24.7305C23.6784 24.7305 24.7363 23.7669 24.7363 21.8398C24.7363 21.2148 24.5671 20.7103 24.2285 20.3262C23.8965 19.9355 23.2878 19.6296 22.4023 19.4082L19.5312 18.6855C17.3372 18.1322 16.2402 16.9603 16.2402 15.1699C16.2402 13.7962 16.7122 12.7773 17.6562 12.1133C18.6003 11.4427 19.9056 11.1074 21.5723 11.1074C22.4447 11.1074 23.2617 11.2018 24.0234 11.3906C24.7852 11.5794 25.4232 11.8333 25.9375 12.1523L25.4492 13.5293C25.013 13.2884 24.4336 13.0736 23.7109 12.8848C22.9948 12.696 22.2689 12.6016 21.5332 12.6016C19.1764 12.6016 17.998 13.4186 17.998 15.0527C17.998 15.6061 18.1771 16.0521 18.5352 16.3906C18.8997 16.7227 19.4434 16.9766 20.166 17.1523L22.9102 17.8164C24.082 18.0964 24.9707 18.5456 25.5762 19.1641C26.1816 19.776 26.4844 20.6484 26.4844 21.7812C26.4844 23.2526 26.0319 24.3626 25.127 25.1113C24.2285 25.8535 23.0046 26.2246 21.4551 26.2246C20.2962 26.2246 19.2643 26.1074 18.3594 25.873C17.4609 25.6322 16.748 25.349 16.2207 25.0234L16.7285 23.6172Z" fill="white"/>
</svg>
